<mxfile host="app.diagrams.net" agent="Mozilla/5.0 (Windows NT 10.0; Win64; x64; rv:144.0) Gecko/20100101 Firefox/144.0" version="28.2.8">
  <diagram name="Page-1" id="hvhDcmpa34XtoZ9tzW4O">
    <mxGraphModel dx="1375" dy="787" grid="1" gridSize="10" guides="1" tooltips="1" connect="1" arrows="1" fold="1" page="1" pageScale="1" pageWidth="827" pageHeight="1169" math="0" shadow="0">
      <root>
        <mxCell id="0" />
        <mxCell id="1" parent="0" />
        <mxCell id="P6pVCDxSrnJHIUGCj1v0-1" value="PANod" style="swimlane;fontStyle=0;align=center;verticalAlign=top;childLayout=stackLayout;horizontal=1;startSize=55;horizontalStack=0;resizeParent=1;resizeParentMax=0;resizeLast=0;collapsible=0;marginBottom=0;html=1;whiteSpace=wrap;" vertex="1" parent="1">
          <mxGeometry x="40" y="40" width="180" height="163" as="geometry" />
        </mxCell>
        <mxCell id="P6pVCDxSrnJHIUGCj1v0-2" value="attributes" style="text;html=1;strokeColor=none;fillColor=none;align=center;verticalAlign=middle;spacingLeft=4;spacingRight=4;overflow=hidden;rotatable=0;points=[[0,0.5],[1,0.5]];portConstraint=eastwest;whiteSpace=wrap;" vertex="1" parent="P6pVCDxSrnJHIUGCj1v0-1">
          <mxGeometry y="55" width="180" height="20" as="geometry" />
        </mxCell>
        <mxCell id="P6pVCDxSrnJHIUGCj1v0-3" value="-data: PAData" style="text;html=1;strokeColor=none;fillColor=none;align=left;verticalAlign=middle;spacingLeft=4;spacingRight=4;overflow=hidden;rotatable=0;points=[[0,0.5],[1,0.5]];portConstraint=eastwest;fontColor=#808080;whiteSpace=wrap;" vertex="1" parent="P6pVCDxSrnJHIUGCj1v0-1">
          <mxGeometry y="75" width="180" height="20" as="geometry" />
        </mxCell>
        <mxCell id="P6pVCDxSrnJHIUGCj1v0-4" value="-next: PANod" style="text;html=1;strokeColor=none;fillColor=none;align=left;verticalAlign=middle;spacingLeft=4;spacingRight=4;overflow=hidden;rotatable=0;points=[[0,0.5],[1,0.5]];portConstraint=eastwest;fontColor=#808080;whiteSpace=wrap;" vertex="1" parent="P6pVCDxSrnJHIUGCj1v0-1">
          <mxGeometry y="95" width="180" height="20" as="geometry" />
        </mxCell>
        <mxCell id="P6pVCDxSrnJHIUGCj1v0-5" value="-stare: PAStatus" style="text;html=1;strokeColor=none;fillColor=none;align=left;verticalAlign=middle;spacingLeft=4;spacingRight=4;overflow=hidden;rotatable=0;points=[[0,0.5],[1,0.5]];portConstraint=eastwest;whiteSpace=wrap;" vertex="1" parent="P6pVCDxSrnJHIUGCj1v0-1">
          <mxGeometry y="115" width="180" height="20" as="geometry" />
        </mxCell>
        <mxCell id="P6pVCDxSrnJHIUGCj1v0-6" value="" style="line;strokeWidth=1;fillColor=none;align=left;verticalAlign=middle;spacingTop=-1;spacingLeft=3;spacingRight=3;rotatable=0;labelPosition=right;points=[];portConstraint=eastwest;" vertex="1" parent="P6pVCDxSrnJHIUGCj1v0-1">
          <mxGeometry y="135" width="180" height="8" as="geometry" />
        </mxCell>
        <mxCell id="P6pVCDxSrnJHIUGCj1v0-7" value="operations" style="text;html=1;strokeColor=none;fillColor=none;align=center;verticalAlign=middle;spacingLeft=4;spacingRight=4;overflow=hidden;rotatable=0;points=[[0,0.5],[1,0.5]];portConstraint=eastwest;whiteSpace=wrap;" vertex="1" parent="P6pVCDxSrnJHIUGCj1v0-1">
          <mxGeometry y="143" width="180" height="20" as="geometry" />
        </mxCell>
        <mxCell id="P6pVCDxSrnJHIUGCj1v0-11" value="PALista" style="swimlane;fontStyle=0;align=center;verticalAlign=top;childLayout=stackLayout;horizontal=1;startSize=55;horizontalStack=0;resizeParent=1;resizeParentMax=0;resizeLast=0;collapsible=0;marginBottom=0;html=1;whiteSpace=wrap;" vertex="1" parent="1">
          <mxGeometry x="230" y="40" width="180" height="143" as="geometry" />
        </mxCell>
        <mxCell id="P6pVCDxSrnJHIUGCj1v0-12" value="attributes" style="text;html=1;strokeColor=none;fillColor=none;align=center;verticalAlign=middle;spacingLeft=4;spacingRight=4;overflow=hidden;rotatable=0;points=[[0,0.5],[1,0.5]];portConstraint=eastwest;whiteSpace=wrap;" vertex="1" parent="P6pVCDxSrnJHIUGCj1v0-11">
          <mxGeometry y="55" width="180" height="20" as="geometry" />
        </mxCell>
        <mxCell id="P6pVCDxSrnJHIUGCj1v0-13" value="-m" style="text;html=1;strokeColor=none;fillColor=none;align=left;verticalAlign=middle;spacingLeft=4;spacingRight=4;overflow=hidden;rotatable=0;points=[[0,0.5],[1,0.5]];portConstraint=eastwest;fontColor=#808080;whiteSpace=wrap;" vertex="1" parent="P6pVCDxSrnJHIUGCj1v0-11">
          <mxGeometry y="75" width="180" height="20" as="geometry" />
        </mxCell>
        <mxCell id="P6pVCDxSrnJHIUGCj1v0-14" value="..." style="text;html=1;strokeColor=none;fillColor=none;align=left;verticalAlign=middle;spacingLeft=4;spacingRight=4;overflow=hidden;rotatable=0;points=[[0,0.5],[1,0.5]];portConstraint=eastwest;whiteSpace=wrap;" vertex="1" parent="P6pVCDxSrnJHIUGCj1v0-11">
          <mxGeometry y="95" width="180" height="20" as="geometry" />
        </mxCell>
        <mxCell id="P6pVCDxSrnJHIUGCj1v0-15" value="" style="line;strokeWidth=1;fillColor=none;align=left;verticalAlign=middle;spacingTop=-1;spacingLeft=3;spacingRight=3;rotatable=0;labelPosition=right;points=[];portConstraint=eastwest;" vertex="1" parent="P6pVCDxSrnJHIUGCj1v0-11">
          <mxGeometry y="115" width="180" height="8" as="geometry" />
        </mxCell>
        <mxCell id="P6pVCDxSrnJHIUGCj1v0-16" value="operations" style="text;html=1;strokeColor=none;fillColor=none;align=center;verticalAlign=middle;spacingLeft=4;spacingRight=4;overflow=hidden;rotatable=0;points=[[0,0.5],[1,0.5]];portConstraint=eastwest;whiteSpace=wrap;" vertex="1" parent="P6pVCDxSrnJHIUGCj1v0-11">
          <mxGeometry y="123" width="180" height="20" as="geometry" />
        </mxCell>
        <mxCell id="P6pVCDxSrnJHIUGCj1v0-19" value="Algorithm" style="swimlane;fontStyle=0;align=center;verticalAlign=top;childLayout=stackLayout;horizontal=1;startSize=55;horizontalStack=0;resizeParent=1;resizeParentMax=0;resizeLast=0;collapsible=0;marginBottom=0;html=1;whiteSpace=wrap;" vertex="1" parent="1">
          <mxGeometry x="420" y="40" width="180" height="118" as="geometry" />
        </mxCell>
        <mxCell id="P6pVCDxSrnJHIUGCj1v0-20" value="attributes" style="text;html=1;strokeColor=none;fillColor=none;align=center;verticalAlign=middle;spacingLeft=4;spacingRight=4;overflow=hidden;rotatable=0;points=[[0,0.5],[1,0.5]];portConstraint=eastwest;whiteSpace=wrap;" vertex="1" parent="P6pVCDxSrnJHIUGCj1v0-19">
          <mxGeometry y="55" width="180" height="20" as="geometry" />
        </mxCell>
        <mxCell id="P6pVCDxSrnJHIUGCj1v0-21" value="-in" style="text;html=1;strokeColor=none;fillColor=none;align=left;verticalAlign=middle;spacingLeft=4;spacingRight=4;overflow=hidden;rotatable=0;points=[[0,0.5],[1,0.5]];portConstraint=eastwest;fontColor=#808080;whiteSpace=wrap;" vertex="1" parent="P6pVCDxSrnJHIUGCj1v0-19">
          <mxGeometry y="75" width="180" height="15" as="geometry" />
        </mxCell>
        <mxCell id="P6pVCDxSrnJHIUGCj1v0-22" value="" style="line;strokeWidth=1;fillColor=none;align=left;verticalAlign=middle;spacingTop=-1;spacingLeft=3;spacingRight=3;rotatable=0;labelPosition=right;points=[];portConstraint=eastwest;" vertex="1" parent="P6pVCDxSrnJHIUGCj1v0-19">
          <mxGeometry y="90" width="180" height="8" as="geometry" />
        </mxCell>
        <mxCell id="P6pVCDxSrnJHIUGCj1v0-23" value="operations" style="text;html=1;strokeColor=none;fillColor=none;align=center;verticalAlign=middle;spacingLeft=4;spacingRight=4;overflow=hidden;rotatable=0;points=[[0,0.5],[1,0.5]];portConstraint=eastwest;whiteSpace=wrap;" vertex="1" parent="P6pVCDxSrnJHIUGCj1v0-19">
          <mxGeometry y="98" width="180" height="20" as="geometry" />
        </mxCell>
        <mxCell id="P6pVCDxSrnJHIUGCj1v0-25" value="Input" style="swimlane;fontStyle=0;align=center;verticalAlign=top;childLayout=stackLayout;horizontal=1;startSize=55;horizontalStack=0;resizeParent=1;resizeParentMax=0;resizeLast=0;collapsible=0;marginBottom=0;html=1;whiteSpace=wrap;" vertex="1" parent="1">
          <mxGeometry x="40" y="259" width="180" height="103" as="geometry" />
        </mxCell>
        <mxCell id="P6pVCDxSrnJHIUGCj1v0-26" value="attributes" style="text;html=1;strokeColor=none;fillColor=none;align=center;verticalAlign=middle;spacingLeft=4;spacingRight=4;overflow=hidden;rotatable=0;points=[[0,0.5],[1,0.5]];portConstraint=eastwest;whiteSpace=wrap;" vertex="1" parent="P6pVCDxSrnJHIUGCj1v0-25">
          <mxGeometry y="55" width="180" height="20" as="geometry" />
        </mxCell>
        <mxCell id="P6pVCDxSrnJHIUGCj1v0-27" value="" style="line;strokeWidth=1;fillColor=none;align=left;verticalAlign=middle;spacingTop=-1;spacingLeft=3;spacingRight=3;rotatable=0;labelPosition=right;points=[];portConstraint=eastwest;" vertex="1" parent="P6pVCDxSrnJHIUGCj1v0-25">
          <mxGeometry y="75" width="180" height="8" as="geometry" />
        </mxCell>
        <mxCell id="P6pVCDxSrnJHIUGCj1v0-28" value="operations" style="text;html=1;strokeColor=none;fillColor=none;align=center;verticalAlign=middle;spacingLeft=4;spacingRight=4;overflow=hidden;rotatable=0;points=[[0,0.5],[1,0.5]];portConstraint=eastwest;whiteSpace=wrap;" vertex="1" parent="P6pVCDxSrnJHIUGCj1v0-25">
          <mxGeometry y="83" width="180" height="20" as="geometry" />
        </mxCell>
        <mxCell id="P6pVCDxSrnJHIUGCj1v0-32" value="Output" style="swimlane;fontStyle=0;align=center;verticalAlign=top;childLayout=stackLayout;horizontal=1;startSize=55;horizontalStack=0;resizeParent=1;resizeParentMax=0;resizeLast=0;collapsible=0;marginBottom=0;html=1;whiteSpace=wrap;" vertex="1" parent="1">
          <mxGeometry x="230" y="250" width="180" height="123" as="geometry" />
        </mxCell>
        <mxCell id="P6pVCDxSrnJHIUGCj1v0-33" value="attributes" style="text;html=1;strokeColor=none;fillColor=none;align=center;verticalAlign=middle;spacingLeft=4;spacingRight=4;overflow=hidden;rotatable=0;points=[[0,0.5],[1,0.5]];portConstraint=eastwest;whiteSpace=wrap;" vertex="1" parent="P6pVCDxSrnJHIUGCj1v0-32">
          <mxGeometry y="55" width="180" height="20" as="geometry" />
        </mxCell>
        <mxCell id="P6pVCDxSrnJHIUGCj1v0-34" value="-rezultat: PARezultat" style="text;html=1;strokeColor=none;fillColor=none;align=left;verticalAlign=middle;spacingLeft=4;spacingRight=4;overflow=hidden;rotatable=0;points=[[0,0.5],[1,0.5]];portConstraint=eastwest;fontColor=#808080;whiteSpace=wrap;" vertex="1" parent="P6pVCDxSrnJHIUGCj1v0-32">
          <mxGeometry y="75" width="180" height="20" as="geometry" />
        </mxCell>
        <mxCell id="P6pVCDxSrnJHIUGCj1v0-35" value="" style="line;strokeWidth=1;fillColor=none;align=left;verticalAlign=middle;spacingTop=-1;spacingLeft=3;spacingRight=3;rotatable=0;labelPosition=right;points=[];portConstraint=eastwest;" vertex="1" parent="P6pVCDxSrnJHIUGCj1v0-32">
          <mxGeometry y="95" width="180" height="8" as="geometry" />
        </mxCell>
        <mxCell id="P6pVCDxSrnJHIUGCj1v0-36" value="operations" style="text;html=1;strokeColor=none;fillColor=none;align=center;verticalAlign=middle;spacingLeft=4;spacingRight=4;overflow=hidden;rotatable=0;points=[[0,0.5],[1,0.5]];portConstraint=eastwest;whiteSpace=wrap;" vertex="1" parent="P6pVCDxSrnJHIUGCj1v0-32">
          <mxGeometry y="103" width="180" height="20" as="geometry" />
        </mxCell>
        <mxCell id="P6pVCDxSrnJHIUGCj1v0-38" value="Edge" style="swimlane;fontStyle=0;align=center;verticalAlign=top;childLayout=stackLayout;horizontal=1;startSize=55;horizontalStack=0;resizeParent=1;resizeParentMax=0;resizeLast=0;collapsible=0;marginBottom=0;html=1;whiteSpace=wrap;" vertex="1" parent="1">
          <mxGeometry x="420" y="250" width="180" height="143" as="geometry" />
        </mxCell>
        <mxCell id="P6pVCDxSrnJHIUGCj1v0-39" value="-node" style="text;html=1;strokeColor=none;fillColor=none;align=left;verticalAlign=middle;spacingLeft=4;spacingRight=4;overflow=hidden;rotatable=0;points=[[0,0.5],[1,0.5]];portConstraint=eastwest;fontColor=#808080;whiteSpace=wrap;" vertex="1" parent="P6pVCDxSrnJHIUGCj1v0-38">
          <mxGeometry y="55" width="180" height="20" as="geometry" />
        </mxCell>
        <mxCell id="P6pVCDxSrnJHIUGCj1v0-40" value="-neigh" style="text;html=1;strokeColor=none;fillColor=none;align=left;verticalAlign=middle;spacingLeft=4;spacingRight=4;overflow=hidden;rotatable=0;points=[[0,0.5],[1,0.5]];portConstraint=eastwest;fontColor=#808080;whiteSpace=wrap;" vertex="1" parent="P6pVCDxSrnJHIUGCj1v0-38">
          <mxGeometry y="75" width="180" height="20" as="geometry" />
        </mxCell>
        <mxCell id="P6pVCDxSrnJHIUGCj1v0-41" value="attributes" style="text;html=1;strokeColor=none;fillColor=none;align=center;verticalAlign=middle;spacingLeft=4;spacingRight=4;overflow=hidden;rotatable=0;points=[[0,0.5],[1,0.5]];portConstraint=eastwest;whiteSpace=wrap;" vertex="1" parent="P6pVCDxSrnJHIUGCj1v0-38">
          <mxGeometry y="95" width="180" height="20" as="geometry" />
        </mxCell>
        <mxCell id="P6pVCDxSrnJHIUGCj1v0-42" value="" style="line;strokeWidth=1;fillColor=none;align=left;verticalAlign=middle;spacingTop=-1;spacingLeft=3;spacingRight=3;rotatable=0;labelPosition=right;points=[];portConstraint=eastwest;" vertex="1" parent="P6pVCDxSrnJHIUGCj1v0-38">
          <mxGeometry y="115" width="180" height="8" as="geometry" />
        </mxCell>
        <mxCell id="P6pVCDxSrnJHIUGCj1v0-43" value="operations" style="text;html=1;strokeColor=none;fillColor=none;align=center;verticalAlign=middle;spacingLeft=4;spacingRight=4;overflow=hidden;rotatable=0;points=[[0,0.5],[1,0.5]];portConstraint=eastwest;whiteSpace=wrap;" vertex="1" parent="P6pVCDxSrnJHIUGCj1v0-38">
          <mxGeometry y="123" width="180" height="20" as="geometry" />
        </mxCell>
        <mxCell id="P6pVCDxSrnJHIUGCj1v0-44" value="BFSInput" style="swimlane;fontStyle=0;align=center;verticalAlign=top;childLayout=stackLayout;horizontal=1;startSize=55;horizontalStack=0;resizeParent=1;resizeParentMax=0;resizeLast=0;collapsible=0;marginBottom=0;html=1;whiteSpace=wrap;" vertex="1" parent="1">
          <mxGeometry x="40" y="422" width="180" height="183" as="geometry" />
        </mxCell>
        <mxCell id="P6pVCDxSrnJHIUGCj1v0-45" value="attributes" style="text;html=1;strokeColor=none;fillColor=none;align=center;verticalAlign=middle;spacingLeft=4;spacingRight=4;overflow=hidden;rotatable=0;points=[[0,0.5],[1,0.5]];portConstraint=eastwest;whiteSpace=wrap;" vertex="1" parent="P6pVCDxSrnJHIUGCj1v0-44">
          <mxGeometry y="55" width="180" height="20" as="geometry" />
        </mxCell>
        <mxCell id="P6pVCDxSrnJHIUGCj1v0-46" value="-n:PACardinal" style="text;html=1;strokeColor=none;fillColor=none;align=left;verticalAlign=middle;spacingLeft=4;spacingRight=4;overflow=hidden;rotatable=0;points=[[0,0.5],[1,0.5]];portConstraint=eastwest;fontColor=#808080;whiteSpace=wrap;" vertex="1" parent="P6pVCDxSrnJHIUGCj1v0-44">
          <mxGeometry y="75" width="180" height="20" as="geometry" />
        </mxCell>
        <mxCell id="P6pVCDxSrnJHIUGCj1v0-47" value="-m:PACardinal" style="text;html=1;strokeColor=none;fillColor=none;align=left;verticalAlign=middle;spacingLeft=4;spacingRight=4;overflow=hidden;rotatable=0;points=[[0,0.5],[1,0.5]];portConstraint=eastwest;whiteSpace=wrap;" vertex="1" parent="P6pVCDxSrnJHIUGCj1v0-44">
          <mxGeometry y="95" width="180" height="20" as="geometry" />
        </mxCell>
        <mxCell id="P6pVCDxSrnJHIUGCj1v0-48" value="-adj:PALista" style="text;html=1;strokeColor=none;fillColor=none;align=left;verticalAlign=middle;spacingLeft=4;spacingRight=4;overflow=hidden;rotatable=0;points=[[0,0.5],[1,0.5]];portConstraint=eastwest;whiteSpace=wrap;" vertex="1" parent="P6pVCDxSrnJHIUGCj1v0-44">
          <mxGeometry y="115" width="180" height="20" as="geometry" />
        </mxCell>
        <mxCell id="P6pVCDxSrnJHIUGCj1v0-49" value="-sursa:PANod" style="text;html=1;strokeColor=none;fillColor=none;align=left;verticalAlign=middle;spacingLeft=4;spacingRight=4;overflow=hidden;rotatable=0;points=[[0,0.5],[1,0.5]];portConstraint=eastwest;whiteSpace=wrap;" vertex="1" parent="P6pVCDxSrnJHIUGCj1v0-44">
          <mxGeometry y="135" width="180" height="20" as="geometry" />
        </mxCell>
        <mxCell id="P6pVCDxSrnJHIUGCj1v0-50" value="" style="line;strokeWidth=1;fillColor=none;align=left;verticalAlign=middle;spacingTop=-1;spacingLeft=3;spacingRight=3;rotatable=0;labelPosition=right;points=[];portConstraint=eastwest;" vertex="1" parent="P6pVCDxSrnJHIUGCj1v0-44">
          <mxGeometry y="155" width="180" height="8" as="geometry" />
        </mxCell>
        <mxCell id="P6pVCDxSrnJHIUGCj1v0-51" value="operations" style="text;html=1;strokeColor=none;fillColor=none;align=center;verticalAlign=middle;spacingLeft=4;spacingRight=4;overflow=hidden;rotatable=0;points=[[0,0.5],[1,0.5]];portConstraint=eastwest;whiteSpace=wrap;" vertex="1" parent="P6pVCDxSrnJHIUGCj1v0-44">
          <mxGeometry y="163" width="180" height="20" as="geometry" />
        </mxCell>
        <mxCell id="P6pVCDxSrnJHIUGCj1v0-52" value="BFSOutput" style="swimlane;fontStyle=0;align=center;verticalAlign=top;childLayout=stackLayout;horizontal=1;startSize=55;horizontalStack=0;resizeParent=1;resizeParentMax=0;resizeLast=0;collapsible=0;marginBottom=0;html=1;whiteSpace=wrap;" vertex="1" parent="1">
          <mxGeometry x="230" y="410" width="180" height="163" as="geometry" />
        </mxCell>
        <mxCell id="P6pVCDxSrnJHIUGCj1v0-53" value="attributes" style="text;html=1;strokeColor=none;fillColor=none;align=center;verticalAlign=middle;spacingLeft=4;spacingRight=4;overflow=hidden;rotatable=0;points=[[0,0.5],[1,0.5]];portConstraint=eastwest;whiteSpace=wrap;" vertex="1" parent="P6pVCDxSrnJHIUGCj1v0-52">
          <mxGeometry y="55" width="180" height="20" as="geometry" />
        </mxCell>
        <mxCell id="P6pVCDxSrnJHIUGCj1v0-54" value="-d:ArrayList" style="text;html=1;strokeColor=none;fillColor=none;align=left;verticalAlign=middle;spacingLeft=4;spacingRight=4;overflow=hidden;rotatable=0;points=[[0,0.5],[1,0.5]];portConstraint=eastwest;whiteSpace=wrap;" vertex="1" parent="P6pVCDxSrnJHIUGCj1v0-52">
          <mxGeometry y="75" width="180" height="20" as="geometry" />
        </mxCell>
        <mxCell id="P6pVCDxSrnJHIUGCj1v0-55" value="-n: PACardinal" style="text;html=1;strokeColor=none;fillColor=none;align=left;verticalAlign=middle;spacingLeft=4;spacingRight=4;overflow=hidden;rotatable=0;points=[[0,0.5],[1,0.5]];portConstraint=eastwest;whiteSpace=wrap;" vertex="1" parent="P6pVCDxSrnJHIUGCj1v0-52">
          <mxGeometry y="95" width="180" height="20" as="geometry" />
        </mxCell>
        <mxCell id="P6pVCDxSrnJHIUGCj1v0-56" value="-rezultat: PARezultat" style="text;html=1;strokeColor=none;fillColor=none;align=left;verticalAlign=middle;spacingLeft=4;spacingRight=4;overflow=hidden;rotatable=0;points=[[0,0.5],[1,0.5]];portConstraint=eastwest;whiteSpace=wrap;" vertex="1" parent="P6pVCDxSrnJHIUGCj1v0-52">
          <mxGeometry y="115" width="180" height="20" as="geometry" />
        </mxCell>
        <mxCell id="P6pVCDxSrnJHIUGCj1v0-57" value="" style="line;strokeWidth=1;fillColor=none;align=left;verticalAlign=middle;spacingTop=-1;spacingLeft=3;spacingRight=3;rotatable=0;labelPosition=right;points=[];portConstraint=eastwest;" vertex="1" parent="P6pVCDxSrnJHIUGCj1v0-52">
          <mxGeometry y="135" width="180" height="8" as="geometry" />
        </mxCell>
        <mxCell id="P6pVCDxSrnJHIUGCj1v0-58" value="operations" style="text;html=1;strokeColor=none;fillColor=none;align=center;verticalAlign=middle;spacingLeft=4;spacingRight=4;overflow=hidden;rotatable=0;points=[[0,0.5],[1,0.5]];portConstraint=eastwest;whiteSpace=wrap;" vertex="1" parent="P6pVCDxSrnJHIUGCj1v0-52">
          <mxGeometry y="143" width="180" height="20" as="geometry" />
        </mxCell>
        <mxCell id="P6pVCDxSrnJHIUGCj1v0-59" value="Graph" style="swimlane;fontStyle=0;align=center;verticalAlign=top;childLayout=stackLayout;horizontal=1;startSize=55;horizontalStack=0;resizeParent=1;resizeParentMax=0;resizeLast=0;collapsible=0;marginBottom=0;html=1;whiteSpace=wrap;" vertex="1" parent="1">
          <mxGeometry x="420" y="410" width="180" height="143" as="geometry" />
        </mxCell>
        <mxCell id="P6pVCDxSrnJHIUGCj1v0-60" value="attributes" style="text;html=1;strokeColor=none;fillColor=none;align=center;verticalAlign=middle;spacingLeft=4;spacingRight=4;overflow=hidden;rotatable=0;points=[[0,0.5],[1,0.5]];portConstraint=eastwest;whiteSpace=wrap;" vertex="1" parent="P6pVCDxSrnJHIUGCj1v0-59">
          <mxGeometry y="55" width="180" height="20" as="geometry" />
        </mxCell>
        <mxCell id="P6pVCDxSrnJHIUGCj1v0-61" value="-in" style="text;html=1;strokeColor=none;fillColor=none;align=left;verticalAlign=middle;spacingLeft=4;spacingRight=4;overflow=hidden;rotatable=0;points=[[0,0.5],[1,0.5]];portConstraint=eastwest;fontColor=#808080;whiteSpace=wrap;" vertex="1" parent="P6pVCDxSrnJHIUGCj1v0-59">
          <mxGeometry y="75" width="180" height="20" as="geometry" />
        </mxCell>
        <mxCell id="P6pVCDxSrnJHIUGCj1v0-62" value="-out" style="text;html=1;strokeColor=none;fillColor=none;align=left;verticalAlign=middle;spacingLeft=4;spacingRight=4;overflow=hidden;rotatable=0;points=[[0,0.5],[1,0.5]];portConstraint=eastwest;whiteSpace=wrap;" vertex="1" parent="P6pVCDxSrnJHIUGCj1v0-59">
          <mxGeometry y="95" width="180" height="20" as="geometry" />
        </mxCell>
        <mxCell id="P6pVCDxSrnJHIUGCj1v0-63" value="" style="line;strokeWidth=1;fillColor=none;align=left;verticalAlign=middle;spacingTop=-1;spacingLeft=3;spacingRight=3;rotatable=0;labelPosition=right;points=[];portConstraint=eastwest;" vertex="1" parent="P6pVCDxSrnJHIUGCj1v0-59">
          <mxGeometry y="115" width="180" height="8" as="geometry" />
        </mxCell>
        <mxCell id="P6pVCDxSrnJHIUGCj1v0-64" value="operations" style="text;html=1;strokeColor=none;fillColor=none;align=center;verticalAlign=middle;spacingLeft=4;spacingRight=4;overflow=hidden;rotatable=0;points=[[0,0.5],[1,0.5]];portConstraint=eastwest;whiteSpace=wrap;" vertex="1" parent="P6pVCDxSrnJHIUGCj1v0-59">
          <mxGeometry y="123" width="180" height="20" as="geometry" />
        </mxCell>
        <mxCell id="P6pVCDxSrnJHIUGCj1v0-67" value="PAData" style="swimlane;fontStyle=0;align=center;verticalAlign=top;childLayout=stackLayout;horizontal=1;startSize=55;horizontalStack=0;resizeParent=1;resizeParentMax=0;resizeLast=0;collapsible=0;marginBottom=0;html=1;whiteSpace=wrap;" vertex="1" parent="1">
          <mxGeometry x="40" y="613" width="180" height="123" as="geometry" />
        </mxCell>
        <mxCell id="P6pVCDxSrnJHIUGCj1v0-68" value="attributes" style="text;html=1;strokeColor=none;fillColor=none;align=center;verticalAlign=middle;spacingLeft=4;spacingRight=4;overflow=hidden;rotatable=0;points=[[0,0.5],[1,0.5]];portConstraint=eastwest;whiteSpace=wrap;" vertex="1" parent="P6pVCDxSrnJHIUGCj1v0-67">
          <mxGeometry y="55" width="180" height="20" as="geometry" />
        </mxCell>
        <mxCell id="P6pVCDxSrnJHIUGCj1v0-69" value="-data" style="text;html=1;strokeColor=none;fillColor=none;align=left;verticalAlign=middle;spacingLeft=4;spacingRight=4;overflow=hidden;rotatable=0;points=[[0,0.5],[1,0.5]];portConstraint=eastwest;whiteSpace=wrap;" vertex="1" parent="P6pVCDxSrnJHIUGCj1v0-67">
          <mxGeometry y="75" width="180" height="20" as="geometry" />
        </mxCell>
        <mxCell id="P6pVCDxSrnJHIUGCj1v0-70" value="" style="line;strokeWidth=1;fillColor=none;align=left;verticalAlign=middle;spacingTop=-1;spacingLeft=3;spacingRight=3;rotatable=0;labelPosition=right;points=[];portConstraint=eastwest;" vertex="1" parent="P6pVCDxSrnJHIUGCj1v0-67">
          <mxGeometry y="95" width="180" height="8" as="geometry" />
        </mxCell>
        <mxCell id="P6pVCDxSrnJHIUGCj1v0-71" value="operations" style="text;html=1;strokeColor=none;fillColor=none;align=center;verticalAlign=middle;spacingLeft=4;spacingRight=4;overflow=hidden;rotatable=0;points=[[0,0.5],[1,0.5]];portConstraint=eastwest;whiteSpace=wrap;" vertex="1" parent="P6pVCDxSrnJHIUGCj1v0-67">
          <mxGeometry y="103" width="180" height="20" as="geometry" />
        </mxCell>
        <mxCell id="P6pVCDxSrnJHIUGCj1v0-72" value="PAPereche" style="swimlane;fontStyle=0;align=center;verticalAlign=top;childLayout=stackLayout;horizontal=1;startSize=55;horizontalStack=0;resizeParent=1;resizeParentMax=0;resizeLast=0;collapsible=0;marginBottom=0;html=1;whiteSpace=wrap;" vertex="1" parent="1">
          <mxGeometry x="230" y="593" width="180" height="143" as="geometry" />
        </mxCell>
        <mxCell id="P6pVCDxSrnJHIUGCj1v0-73" value="attributes" style="text;html=1;strokeColor=none;fillColor=none;align=center;verticalAlign=middle;spacingLeft=4;spacingRight=4;overflow=hidden;rotatable=0;points=[[0,0.5],[1,0.5]];portConstraint=eastwest;whiteSpace=wrap;" vertex="1" parent="P6pVCDxSrnJHIUGCj1v0-72">
          <mxGeometry y="55" width="180" height="20" as="geometry" />
        </mxCell>
        <mxCell id="P6pVCDxSrnJHIUGCj1v0-74" value="-node" style="text;html=1;strokeColor=none;fillColor=none;align=left;verticalAlign=middle;spacingLeft=4;spacingRight=4;overflow=hidden;rotatable=0;points=[[0,0.5],[1,0.5]];portConstraint=eastwest;whiteSpace=wrap;" vertex="1" parent="P6pVCDxSrnJHIUGCj1v0-72">
          <mxGeometry y="75" width="180" height="20" as="geometry" />
        </mxCell>
        <mxCell id="P6pVCDxSrnJHIUGCj1v0-75" value="-neigh" style="text;html=1;strokeColor=none;fillColor=none;align=left;verticalAlign=middle;spacingLeft=4;spacingRight=4;overflow=hidden;rotatable=0;points=[[0,0.5],[1,0.5]];portConstraint=eastwest;whiteSpace=wrap;" vertex="1" parent="P6pVCDxSrnJHIUGCj1v0-72">
          <mxGeometry y="95" width="180" height="20" as="geometry" />
        </mxCell>
        <mxCell id="P6pVCDxSrnJHIUGCj1v0-76" value="" style="line;strokeWidth=1;fillColor=none;align=left;verticalAlign=middle;spacingTop=-1;spacingLeft=3;spacingRight=3;rotatable=0;labelPosition=right;points=[];portConstraint=eastwest;" vertex="1" parent="P6pVCDxSrnJHIUGCj1v0-72">
          <mxGeometry y="115" width="180" height="8" as="geometry" />
        </mxCell>
        <mxCell id="P6pVCDxSrnJHIUGCj1v0-77" value="operations" style="text;html=1;strokeColor=none;fillColor=none;align=center;verticalAlign=middle;spacingLeft=4;spacingRight=4;overflow=hidden;rotatable=0;points=[[0,0.5],[1,0.5]];portConstraint=eastwest;whiteSpace=wrap;" vertex="1" parent="P6pVCDxSrnJHIUGCj1v0-72">
          <mxGeometry y="123" width="180" height="20" as="geometry" />
        </mxCell>
        <mxCell id="P6pVCDxSrnJHIUGCj1v0-78" value="BFSResult" style="swimlane;fontStyle=0;align=center;verticalAlign=top;childLayout=stackLayout;horizontal=1;startSize=55;horizontalStack=0;resizeParent=1;resizeParentMax=0;resizeLast=0;collapsible=0;marginBottom=0;html=1;whiteSpace=wrap;" vertex="1" parent="1">
          <mxGeometry x="420" y="605" width="180" height="123" as="geometry" />
        </mxCell>
        <mxCell id="P6pVCDxSrnJHIUGCj1v0-79" value="attributes" style="text;html=1;strokeColor=none;fillColor=none;align=center;verticalAlign=middle;spacingLeft=4;spacingRight=4;overflow=hidden;rotatable=0;points=[[0,0.5],[1,0.5]];portConstraint=eastwest;whiteSpace=wrap;" vertex="1" parent="P6pVCDxSrnJHIUGCj1v0-78">
          <mxGeometry y="55" width="180" height="20" as="geometry" />
        </mxCell>
        <mxCell id="P6pVCDxSrnJHIUGCj1v0-80" value="-int: rezultat" style="text;html=1;strokeColor=none;fillColor=none;align=left;verticalAlign=middle;spacingLeft=4;spacingRight=4;overflow=hidden;rotatable=0;points=[[0,0.5],[1,0.5]];portConstraint=eastwest;whiteSpace=wrap;" vertex="1" parent="P6pVCDxSrnJHIUGCj1v0-78">
          <mxGeometry y="75" width="180" height="20" as="geometry" />
        </mxCell>
        <mxCell id="P6pVCDxSrnJHIUGCj1v0-81" value="" style="line;strokeWidth=1;fillColor=none;align=left;verticalAlign=middle;spacingTop=-1;spacingLeft=3;spacingRight=3;rotatable=0;labelPosition=right;points=[];portConstraint=eastwest;" vertex="1" parent="P6pVCDxSrnJHIUGCj1v0-78">
          <mxGeometry y="95" width="180" height="8" as="geometry" />
        </mxCell>
        <mxCell id="P6pVCDxSrnJHIUGCj1v0-82" value="operations" style="text;html=1;strokeColor=none;fillColor=none;align=center;verticalAlign=middle;spacingLeft=4;spacingRight=4;overflow=hidden;rotatable=0;points=[[0,0.5],[1,0.5]];portConstraint=eastwest;whiteSpace=wrap;" vertex="1" parent="P6pVCDxSrnJHIUGCj1v0-78">
          <mxGeometry y="103" width="180" height="20" as="geometry" />
        </mxCell>
        <mxCell id="P6pVCDxSrnJHIUGCj1v0-86" value="BFSAlgorithm" style="swimlane;fontStyle=0;align=center;verticalAlign=top;childLayout=stackLayout;horizontal=1;startSize=55;horizontalStack=0;resizeParent=1;resizeParentMax=0;resizeLast=0;collapsible=0;marginBottom=0;html=1;whiteSpace=wrap;" vertex="1" parent="1">
          <mxGeometry x="420" y="840" width="180" height="143" as="geometry" />
        </mxCell>
        <mxCell id="P6pVCDxSrnJHIUGCj1v0-87" value="attributes" style="text;html=1;strokeColor=none;fillColor=none;align=center;verticalAlign=middle;spacingLeft=4;spacingRight=4;overflow=hidden;rotatable=0;points=[[0,0.5],[1,0.5]];portConstraint=eastwest;whiteSpace=wrap;" vertex="1" parent="P6pVCDxSrnJHIUGCj1v0-86">
          <mxGeometry y="55" width="180" height="20" as="geometry" />
        </mxCell>
        <mxCell id="P6pVCDxSrnJHIUGCj1v0-88" value="-in :BFSInput" style="text;html=1;strokeColor=none;fillColor=none;align=left;verticalAlign=middle;spacingLeft=4;spacingRight=4;overflow=hidden;rotatable=0;points=[[0,0.5],[1,0.5]];portConstraint=eastwest;fontColor=#808080;whiteSpace=wrap;" vertex="1" parent="P6pVCDxSrnJHIUGCj1v0-86">
          <mxGeometry y="75" width="180" height="20" as="geometry" />
        </mxCell>
        <mxCell id="P6pVCDxSrnJHIUGCj1v0-89" value="-graf PAGraf" style="text;html=1;strokeColor=none;fillColor=none;align=left;verticalAlign=middle;spacingLeft=4;spacingRight=4;overflow=hidden;rotatable=0;points=[[0,0.5],[1,0.5]];portConstraint=eastwest;whiteSpace=wrap;" vertex="1" parent="P6pVCDxSrnJHIUGCj1v0-86">
          <mxGeometry y="95" width="180" height="20" as="geometry" />
        </mxCell>
        <mxCell id="P6pVCDxSrnJHIUGCj1v0-90" value="" style="line;strokeWidth=1;fillColor=none;align=left;verticalAlign=middle;spacingTop=-1;spacingLeft=3;spacingRight=3;rotatable=0;labelPosition=right;points=[];portConstraint=eastwest;" vertex="1" parent="P6pVCDxSrnJHIUGCj1v0-86">
          <mxGeometry y="115" width="180" height="8" as="geometry" />
        </mxCell>
        <mxCell id="P6pVCDxSrnJHIUGCj1v0-91" value="operations" style="text;html=1;strokeColor=none;fillColor=none;align=center;verticalAlign=middle;spacingLeft=4;spacingRight=4;overflow=hidden;rotatable=0;points=[[0,0.5],[1,0.5]];portConstraint=eastwest;whiteSpace=wrap;" vertex="1" parent="P6pVCDxSrnJHIUGCj1v0-86">
          <mxGeometry y="123" width="180" height="20" as="geometry" />
        </mxCell>
        <mxCell id="P6pVCDxSrnJHIUGCj1v0-94" value="BFSOutput" style="swimlane;fontStyle=0;align=center;verticalAlign=top;childLayout=stackLayout;horizontal=1;startSize=55;horizontalStack=0;resizeParent=1;resizeParentMax=0;resizeLast=0;collapsible=0;marginBottom=0;html=1;whiteSpace=wrap;" vertex="1" parent="1">
          <mxGeometry x="40" y="740" width="180" height="123" as="geometry" />
        </mxCell>
        <mxCell id="P6pVCDxSrnJHIUGCj1v0-95" value="attributes" style="text;html=1;strokeColor=none;fillColor=none;align=center;verticalAlign=middle;spacingLeft=4;spacingRight=4;overflow=hidden;rotatable=0;points=[[0,0.5],[1,0.5]];portConstraint=eastwest;whiteSpace=wrap;" vertex="1" parent="P6pVCDxSrnJHIUGCj1v0-94">
          <mxGeometry y="55" width="180" height="20" as="geometry" />
        </mxCell>
        <mxCell id="P6pVCDxSrnJHIUGCj1v0-96" value="-rezultat: BFSResult" style="text;html=1;strokeColor=none;fillColor=none;align=left;verticalAlign=middle;spacingLeft=4;spacingRight=4;overflow=hidden;rotatable=0;points=[[0,0.5],[1,0.5]];portConstraint=eastwest;fontColor=#808080;whiteSpace=wrap;" vertex="1" parent="P6pVCDxSrnJHIUGCj1v0-94">
          <mxGeometry y="75" width="180" height="20" as="geometry" />
        </mxCell>
        <mxCell id="P6pVCDxSrnJHIUGCj1v0-97" value="" style="line;strokeWidth=1;fillColor=none;align=left;verticalAlign=middle;spacingTop=-1;spacingLeft=3;spacingRight=3;rotatable=0;labelPosition=right;points=[];portConstraint=eastwest;" vertex="1" parent="P6pVCDxSrnJHIUGCj1v0-94">
          <mxGeometry y="95" width="180" height="8" as="geometry" />
        </mxCell>
        <mxCell id="P6pVCDxSrnJHIUGCj1v0-98" value="operations" style="text;html=1;strokeColor=none;fillColor=none;align=center;verticalAlign=middle;spacingLeft=4;spacingRight=4;overflow=hidden;rotatable=0;points=[[0,0.5],[1,0.5]];portConstraint=eastwest;whiteSpace=wrap;" vertex="1" parent="P6pVCDxSrnJHIUGCj1v0-94">
          <mxGeometry y="103" width="180" height="20" as="geometry" />
        </mxCell>
        <mxCell id="P6pVCDxSrnJHIUGCj1v0-101" value="PAData" style="swimlane;fontStyle=0;align=center;verticalAlign=top;childLayout=stackLayout;horizontal=1;startSize=55;horizontalStack=0;resizeParent=1;resizeParentMax=0;resizeLast=0;collapsible=0;marginBottom=0;html=1;whiteSpace=wrap;" vertex="1" parent="1">
          <mxGeometry x="230" y="740" width="180" height="103" as="geometry" />
        </mxCell>
        <mxCell id="P6pVCDxSrnJHIUGCj1v0-102" value="attributes" style="text;html=1;strokeColor=none;fillColor=none;align=center;verticalAlign=middle;spacingLeft=4;spacingRight=4;overflow=hidden;rotatable=0;points=[[0,0.5],[1,0.5]];portConstraint=eastwest;whiteSpace=wrap;" vertex="1" parent="P6pVCDxSrnJHIUGCj1v0-101">
          <mxGeometry y="55" width="180" height="20" as="geometry" />
        </mxCell>
        <mxCell id="P6pVCDxSrnJHIUGCj1v0-103" value="" style="line;strokeWidth=1;fillColor=none;align=left;verticalAlign=middle;spacingTop=-1;spacingLeft=3;spacingRight=3;rotatable=0;labelPosition=right;points=[];portConstraint=eastwest;" vertex="1" parent="P6pVCDxSrnJHIUGCj1v0-101">
          <mxGeometry y="75" width="180" height="8" as="geometry" />
        </mxCell>
        <mxCell id="P6pVCDxSrnJHIUGCj1v0-104" value="operations" style="text;html=1;strokeColor=none;fillColor=none;align=center;verticalAlign=middle;spacingLeft=4;spacingRight=4;overflow=hidden;rotatable=0;points=[[0,0.5],[1,0.5]];portConstraint=eastwest;whiteSpace=wrap;" vertex="1" parent="P6pVCDxSrnJHIUGCj1v0-101">
          <mxGeometry y="83" width="180" height="20" as="geometry" />
        </mxCell>
        <mxCell id="P6pVCDxSrnJHIUGCj1v0-107" value="PAGraf" style="swimlane;fontStyle=0;align=center;verticalAlign=top;childLayout=stackLayout;horizontal=1;startSize=55;horizontalStack=0;resizeParent=1;resizeParentMax=0;resizeLast=0;collapsible=0;marginBottom=0;html=1;whiteSpace=wrap;" vertex="1" parent="1">
          <mxGeometry x="230" y="890" width="180" height="183" as="geometry" />
        </mxCell>
        <mxCell id="P6pVCDxSrnJHIUGCj1v0-108" value="attributes" style="text;html=1;strokeColor=none;fillColor=none;align=center;verticalAlign=middle;spacingLeft=4;spacingRight=4;overflow=hidden;rotatable=0;points=[[0,0.5],[1,0.5]];portConstraint=eastwest;whiteSpace=wrap;" vertex="1" parent="P6pVCDxSrnJHIUGCj1v0-107">
          <mxGeometry y="55" width="180" height="20" as="geometry" />
        </mxCell>
        <mxCell id="P6pVCDxSrnJHIUGCj1v0-109" value="-n: PACardinal" style="text;html=1;strokeColor=none;fillColor=none;align=left;verticalAlign=middle;spacingLeft=4;spacingRight=4;overflow=hidden;rotatable=0;points=[[0,0.5],[1,0.5]];portConstraint=eastwest;fontColor=#808080;whiteSpace=wrap;" vertex="1" parent="P6pVCDxSrnJHIUGCj1v0-107">
          <mxGeometry y="75" width="180" height="20" as="geometry" />
        </mxCell>
        <mxCell id="P6pVCDxSrnJHIUGCj1v0-110" value="-m: PACardinal" style="text;html=1;strokeColor=none;fillColor=none;align=left;verticalAlign=middle;spacingLeft=4;spacingRight=4;overflow=hidden;rotatable=0;points=[[0,0.5],[1,0.5]];portConstraint=eastwest;fontColor=#808080;whiteSpace=wrap;" vertex="1" parent="P6pVCDxSrnJHIUGCj1v0-107">
          <mxGeometry y="95" width="180" height="20" as="geometry" />
        </mxCell>
        <mxCell id="P6pVCDxSrnJHIUGCj1v0-111" value="-adj: PALista" style="text;html=1;strokeColor=none;fillColor=none;align=left;verticalAlign=middle;spacingLeft=4;spacingRight=4;overflow=hidden;rotatable=0;points=[[0,0.5],[1,0.5]];portConstraint=eastwest;fontColor=#808080;whiteSpace=wrap;" vertex="1" parent="P6pVCDxSrnJHIUGCj1v0-107">
          <mxGeometry y="115" width="180" height="20" as="geometry" />
        </mxCell>
        <mxCell id="P6pVCDxSrnJHIUGCj1v0-112" value="-sursa: PANod" style="text;html=1;strokeColor=none;fillColor=none;align=left;verticalAlign=middle;spacingLeft=4;spacingRight=4;overflow=hidden;rotatable=0;points=[[0,0.5],[1,0.5]];portConstraint=eastwest;fontColor=#808080;whiteSpace=wrap;" vertex="1" parent="P6pVCDxSrnJHIUGCj1v0-107">
          <mxGeometry y="135" width="180" height="20" as="geometry" />
        </mxCell>
        <mxCell id="P6pVCDxSrnJHIUGCj1v0-113" value="" style="line;strokeWidth=1;fillColor=none;align=left;verticalAlign=middle;spacingTop=-1;spacingLeft=3;spacingRight=3;rotatable=0;labelPosition=right;points=[];portConstraint=eastwest;" vertex="1" parent="P6pVCDxSrnJHIUGCj1v0-107">
          <mxGeometry y="155" width="180" height="8" as="geometry" />
        </mxCell>
        <mxCell id="P6pVCDxSrnJHIUGCj1v0-114" value="operations" style="text;html=1;strokeColor=none;fillColor=none;align=center;verticalAlign=middle;spacingLeft=4;spacingRight=4;overflow=hidden;rotatable=0;points=[[0,0.5],[1,0.5]];portConstraint=eastwest;whiteSpace=wrap;" vertex="1" parent="P6pVCDxSrnJHIUGCj1v0-107">
          <mxGeometry y="163" width="180" height="20" as="geometry" />
        </mxCell>
        <mxCell id="P6pVCDxSrnJHIUGCj1v0-117" value="PALista" style="swimlane;fontStyle=0;align=center;verticalAlign=top;childLayout=stackLayout;horizontal=1;startSize=55;horizontalStack=0;resizeParent=1;resizeParentMax=0;resizeLast=0;collapsible=0;marginBottom=0;html=1;whiteSpace=wrap;" vertex="1" parent="1">
          <mxGeometry x="420" y="1023" width="180" height="123" as="geometry" />
        </mxCell>
        <mxCell id="P6pVCDxSrnJHIUGCj1v0-118" value="attributes" style="text;html=1;strokeColor=none;fillColor=none;align=center;verticalAlign=middle;spacingLeft=4;spacingRight=4;overflow=hidden;rotatable=0;points=[[0,0.5],[1,0.5]];portConstraint=eastwest;whiteSpace=wrap;" vertex="1" parent="P6pVCDxSrnJHIUGCj1v0-117">
          <mxGeometry y="55" width="180" height="20" as="geometry" />
        </mxCell>
        <mxCell id="P6pVCDxSrnJHIUGCj1v0-119" value="-head: PANod" style="text;html=1;strokeColor=none;fillColor=none;align=left;verticalAlign=middle;spacingLeft=4;spacingRight=4;overflow=hidden;rotatable=0;points=[[0,0.5],[1,0.5]];portConstraint=eastwest;fontColor=#808080;whiteSpace=wrap;" vertex="1" parent="P6pVCDxSrnJHIUGCj1v0-117">
          <mxGeometry y="75" width="180" height="20" as="geometry" />
        </mxCell>
        <mxCell id="P6pVCDxSrnJHIUGCj1v0-120" value="" style="line;strokeWidth=1;fillColor=none;align=left;verticalAlign=middle;spacingTop=-1;spacingLeft=3;spacingRight=3;rotatable=0;labelPosition=right;points=[];portConstraint=eastwest;" vertex="1" parent="P6pVCDxSrnJHIUGCj1v0-117">
          <mxGeometry y="95" width="180" height="8" as="geometry" />
        </mxCell>
        <mxCell id="P6pVCDxSrnJHIUGCj1v0-121" value="operations" style="text;html=1;strokeColor=none;fillColor=none;align=center;verticalAlign=middle;spacingLeft=4;spacingRight=4;overflow=hidden;rotatable=0;points=[[0,0.5],[1,0.5]];portConstraint=eastwest;whiteSpace=wrap;" vertex="1" parent="P6pVCDxSrnJHIUGCj1v0-117">
          <mxGeometry y="103" width="180" height="20" as="geometry" />
        </mxCell>
        <mxCell id="P6pVCDxSrnJHIUGCj1v0-124" value="PAMuchie" style="swimlane;fontStyle=0;align=center;verticalAlign=top;childLayout=stackLayout;horizontal=1;startSize=55;horizontalStack=0;resizeParent=1;resizeParentMax=0;resizeLast=0;collapsible=0;marginBottom=0;html=1;whiteSpace=wrap;" vertex="1" parent="1">
          <mxGeometry x="40" y="910" width="180" height="123" as="geometry" />
        </mxCell>
        <mxCell id="P6pVCDxSrnJHIUGCj1v0-125" value="attributes" style="text;html=1;strokeColor=none;fillColor=none;align=center;verticalAlign=middle;spacingLeft=4;spacingRight=4;overflow=hidden;rotatable=0;points=[[0,0.5],[1,0.5]];portConstraint=eastwest;whiteSpace=wrap;" vertex="1" parent="P6pVCDxSrnJHIUGCj1v0-124">
          <mxGeometry y="55" width="180" height="20" as="geometry" />
        </mxCell>
        <mxCell id="P6pVCDxSrnJHIUGCj1v0-126" value="-p: PAPereche" style="text;html=1;strokeColor=none;fillColor=none;align=left;verticalAlign=middle;spacingLeft=4;spacingRight=4;overflow=hidden;rotatable=0;points=[[0,0.5],[1,0.5]];portConstraint=eastwest;fontColor=#808080;whiteSpace=wrap;" vertex="1" parent="P6pVCDxSrnJHIUGCj1v0-124">
          <mxGeometry y="75" width="180" height="20" as="geometry" />
        </mxCell>
        <mxCell id="P6pVCDxSrnJHIUGCj1v0-127" value="" style="line;strokeWidth=1;fillColor=none;align=left;verticalAlign=middle;spacingTop=-1;spacingLeft=3;spacingRight=3;rotatable=0;labelPosition=right;points=[];portConstraint=eastwest;" vertex="1" parent="P6pVCDxSrnJHIUGCj1v0-124">
          <mxGeometry y="95" width="180" height="8" as="geometry" />
        </mxCell>
        <mxCell id="P6pVCDxSrnJHIUGCj1v0-128" value="operations" style="text;html=1;strokeColor=none;fillColor=none;align=center;verticalAlign=middle;spacingLeft=4;spacingRight=4;overflow=hidden;rotatable=0;points=[[0,0.5],[1,0.5]];portConstraint=eastwest;whiteSpace=wrap;" vertex="1" parent="P6pVCDxSrnJHIUGCj1v0-124">
          <mxGeometry y="103" width="180" height="20" as="geometry" />
        </mxCell>
        <mxCell id="P6pVCDxSrnJHIUGCj1v0-131" value="PAPereche" style="swimlane;fontStyle=0;align=center;verticalAlign=top;childLayout=stackLayout;horizontal=1;startSize=55;horizontalStack=0;resizeParent=1;resizeParentMax=0;resizeLast=0;collapsible=0;marginBottom=0;html=1;whiteSpace=wrap;" vertex="1" parent="1">
          <mxGeometry x="620" y="40" width="180" height="118" as="geometry" />
        </mxCell>
        <mxCell id="P6pVCDxSrnJHIUGCj1v0-132" value="attributes" style="text;html=1;strokeColor=none;fillColor=none;align=center;verticalAlign=middle;spacingLeft=4;spacingRight=4;overflow=hidden;rotatable=0;points=[[0,0.5],[1,0.5]];portConstraint=eastwest;whiteSpace=wrap;" vertex="1" parent="P6pVCDxSrnJHIUGCj1v0-131">
          <mxGeometry y="55" width="180" height="20" as="geometry" />
        </mxCell>
        <mxCell id="P6pVCDxSrnJHIUGCj1v0-133" value="-int: rezultat" style="text;html=1;strokeColor=none;fillColor=none;align=left;verticalAlign=middle;spacingLeft=4;spacingRight=4;overflow=hidden;rotatable=0;points=[[0,0.5],[1,0.5]];portConstraint=eastwest;fontColor=#808080;whiteSpace=wrap;" vertex="1" parent="P6pVCDxSrnJHIUGCj1v0-131">
          <mxGeometry y="75" width="180" height="15" as="geometry" />
        </mxCell>
        <mxCell id="P6pVCDxSrnJHIUGCj1v0-134" value="" style="line;strokeWidth=1;fillColor=none;align=left;verticalAlign=middle;spacingTop=-1;spacingLeft=3;spacingRight=3;rotatable=0;labelPosition=right;points=[];portConstraint=eastwest;" vertex="1" parent="P6pVCDxSrnJHIUGCj1v0-131">
          <mxGeometry y="90" width="180" height="8" as="geometry" />
        </mxCell>
        <mxCell id="P6pVCDxSrnJHIUGCj1v0-135" value="operations" style="text;html=1;strokeColor=none;fillColor=none;align=center;verticalAlign=middle;spacingLeft=4;spacingRight=4;overflow=hidden;rotatable=0;points=[[0,0.5],[1,0.5]];portConstraint=eastwest;whiteSpace=wrap;" vertex="1" parent="P6pVCDxSrnJHIUGCj1v0-131">
          <mxGeometry y="98" width="180" height="20" as="geometry" />
        </mxCell>
        <mxCell id="P6pVCDxSrnJHIUGCj1v0-137" value="PAStare" style="swimlane;fontStyle=0;align=center;verticalAlign=top;childLayout=stackLayout;horizontal=1;startSize=55;horizontalStack=0;resizeParent=1;resizeParentMax=0;resizeLast=0;collapsible=0;marginBottom=0;html=1;whiteSpace=wrap;" vertex="1" parent="1">
          <mxGeometry x="620" y="190" width="180" height="103" as="geometry" />
        </mxCell>
        <mxCell id="P6pVCDxSrnJHIUGCj1v0-138" value="attributes" style="text;html=1;strokeColor=none;fillColor=none;align=center;verticalAlign=middle;spacingLeft=4;spacingRight=4;overflow=hidden;rotatable=0;points=[[0,0.5],[1,0.5]];portConstraint=eastwest;whiteSpace=wrap;" vertex="1" parent="P6pVCDxSrnJHIUGCj1v0-137">
          <mxGeometry y="55" width="180" height="20" as="geometry" />
        </mxCell>
        <mxCell id="P6pVCDxSrnJHIUGCj1v0-140" value="" style="line;strokeWidth=1;fillColor=none;align=left;verticalAlign=middle;spacingTop=-1;spacingLeft=3;spacingRight=3;rotatable=0;labelPosition=right;points=[];portConstraint=eastwest;" vertex="1" parent="P6pVCDxSrnJHIUGCj1v0-137">
          <mxGeometry y="75" width="180" height="8" as="geometry" />
        </mxCell>
        <mxCell id="P6pVCDxSrnJHIUGCj1v0-141" value="operations" style="text;html=1;strokeColor=none;fillColor=none;align=center;verticalAlign=middle;spacingLeft=4;spacingRight=4;overflow=hidden;rotatable=0;points=[[0,0.5],[1,0.5]];portConstraint=eastwest;whiteSpace=wrap;" vertex="1" parent="P6pVCDxSrnJHIUGCj1v0-137">
          <mxGeometry y="83" width="180" height="20" as="geometry" />
        </mxCell>
      </root>
    </mxGraphModel>
  </diagram>
</mxfile>
